<?xml version="1.0" standalone="no"?>
<!DOCTYPE svg PUBLIC "-//W3C//DTD SVG 20010904//EN"
 "http://www.w3.org/TR/2001/REC-SVG-20010904/DTD/svg10.dtd">
<svg version="1.0" xmlns="http://www.w3.org/2000/svg"
 width="500.000000pt" height="500.000000pt" viewBox="0 0 500.000000 500.000000"
 preserveAspectRatio="xMidYMid meet">
 <style>
      @media (prefers-color-scheme:dark) {
        svg {
          background-color: white;
        }
      }
</style>
<g transform="translate(0.000000,500.000000) scale(0.100000,-0.100000)"
fill="#2a266b" stroke="none">
<path d="M2590 4423 c-201 -36 -402 -142 -530 -280 -70 -75 -78 -85 -123 -159
-56 -93 -86 -166 -113 -281 l-24 -103 0 -1387 c0 -1330 1 -1390 19 -1429 23
-50 64 -84 102 -84 39 0 93 50 107 98 9 29 12 305 12 1044 0 553 3 1007 6
1011 3 3 23 -10 43 -30 66 -65 134 -114 215 -155 140 -71 223 -94 368 -104
533 -37 997 393 998 923 0 456 -299 825 -753 928 -64 14 -264 19 -327 8z m278
-269 c237 -48 426 -217 509 -457 21 -60 26 -91 26 -187 1 -123 -11 -190 -50
-278 -80 -181 -228 -315 -418 -377 -68 -23 -97 -26 -200 -26 -103 0 -132 3
-203 26 -109 36 -210 103 -297 198 -59 63 -78 94 -112 174 -66 156 -77 287
-38 439 18 69 65 172 97 216 31 40 134 148 143 148 3 0 21 11 38 24 129 96
328 136 505 100z"/>
<path d="M2755 2334 c-183 -24 -315 -106 -410 -254 -75 -117 -75 -120 -75
-768 0 -559 0 -572 20 -592 26 -26 64 -26 90 0 19 19 20 33 20 368 0 192 3
352 6 355 4 3 32 -14 63 -38 128 -100 289 -137 462 -105 132 24 287 139 357
262 186 329 -46 745 -429 771 -41 3 -87 3 -104 1z m135 -149 c96 -13 184 -72
250 -167 46 -68 63 -125 62 -213 -2 -114 -40 -195 -130 -277 -73 -65 -153 -93
-267 -93 -81 0 -97 4 -160 33 -88 42 -148 99 -188 182 -29 60 -32 73 -32 165
0 91 3 105 30 159 39 77 109 147 182 182 55 26 145 44 188 38 11 -1 40 -5 65
-9z"/>
</g>
</svg>
