<?xml version="1.0" encoding="utf-8"?>
<!-- Generator: Adobe Illustrator 16.0.0, SVG Export Plug-In . SVG Version: 6.00 Build 0)  -->
<!DOCTYPE svg PUBLIC "-//W3C//DTD SVG 1.1//EN" "http://www.w3.org/Graphics/SVG/1.1/DTD/svg11.dtd">
<svg version="1.1" id="Layer_1" xmlns="http://www.w3.org/2000/svg" xmlns:xlink="http://www.w3.org/1999/xlink" x="0px" y="0px"
	 width="841.89px" height="595.28px" viewBox="0 0 841.89 595.28" enable-background="new 0 0 841.89 595.28" xml:space="preserve">
<rect x="259.788" y="234.889" fill="none" width="672.702" height="89.696"/>
<g display="none">
</g>
<rect x="271.5" y="314.751" fill="none" width="491.702" height="75.36"/>
<g display="none">
	<path display="inline" d="M155.786,250.482c0,0-17.618,23.315-14.806,56.748c0,0,7.168,7.211,27.71,2.557
		c20.542-4.652,33.432-5.076,40.077,6.533c0,0,10.78-13.303,7.35-20.25c-3.431-6.947-10.4-4.974-24.396-11.74
		C177.724,277.563,151.365,271.199,155.786,250.482z"/>
	<path display="inline" d="M173.567,232.337c0,0-8.005,21.192,7.851,34.013c15.855,12.819,41.793,7.241,44.745,30.892
		c0,0,16.084-14.123,22.73-7.059c3.45,3.664,4.418,8.291,4.55,11.89c0.123,3.338,11.091-2.477,10.645-3.39
		c-0.743-1.527-1.349-5.16,2.936-13.759c6.854-13.764,21.479-40.425-11.984-67.451C255.041,217.472,214.277,191.416,173.567,232.337
		z"/>
	<path display="inline" d="M171.674,237.7c0,0-7.738,36.315,23.932,42.468c0.46,0.09,0.929,0.174,1.408,0.25
		c33.304,5.336,15.768,28.222,15.768,28.222s2.394-12.471-12.932-15.515c-15.325-3.047-38.444-1.725-51.641-23.02
		C148.208,270.104,150.872,245.767,171.674,237.7z"/>
	<path display="inline" d="M208.768,316.32c0,0-6.298-17.053-38.035-18.213c0,0-21.335,3.236-26.417-7.213
		c0,0-7.931,19.299,0.629,30.951c0,0,10.393-1.107,25.658-9.594C185.868,303.764,199.54,308.307,208.768,316.32z"/>
	<path display="inline" d="M207.692,318.723c0,0-12.368-7.162-23.522-5.275c-11.155,1.887-27.447,16.021-35.473,14.375
		c0,0,0.442,0.896,1.502,2.096c2.907,3.285,10.459,8.82,26.291,4.287c0,0,8.851-4.742,12-8.729
		C191.639,321.488,200.736,317.311,207.692,318.723z"/>
	<path display="inline" d="M205.824,320.754c0,0-8.831,3.805-13.928,11.586c-5.099,7.791-14.324,12.656-21.4,9.984
		c-7.076-2.67-6.257-1.832-6.257-1.832s2.652,7.113,20.93,13.313c18.276,6.201,22.067-10.059,21.851-15.66
		C206.803,332.543,204.318,325.805,205.824,320.754z"/>
	<path display="inline" d="M174.781,230.699c0,0-40.121,5.476-69.796,27.164c-29.676,21.688-29.863,33.916-14.473,57.319
		l2.338,10.184c0,0-20.751,4.52-31.605-28.436c-10.857-32.958,27.516-47.819,38.704-53.475
		c11.186-5.653,69.589-22.045,84.948-17.395L174.781,230.699z"/>
	<circle display="inline" fill="#FFFFFF" cx="237.654" cy="225.203" r="28.798"/>
	<circle display="inline" fill="#050606" cx="237.653" cy="225.201" r="26.049"/>
	<path display="inline" d="M264.219,215.322c0,0,3.832,8.323,3.273,11.542l2.42,4.361c0,0,2.684-14.105-9.412-21.344"/>
	<path display="inline" fill="#FFFFFF" d="M133.102,322.986c0,0,3.485-0.703,10.558-7.662c7.072-6.959,24.611-29.498,24.611-29.498
		s-7.485,33.199-15.407,42.385c-7.922,9.184-22.221,2.645-22.221,2.645L133.102,322.986z"/>
	<path display="inline" d="M185.002,226.068c0,0-50.814,34.137-67.822,53.289c-17.007,19.157-37.038,45.326-15.404,58.883
		c21.637,13.555,60.664-41.646,62.745-45.652c0,0-2.345,29.477-29.712,50.07c-27.369,20.59-50.599,10.375-57.859-0.734
		c-7.259-11.109-15.175-39.766,29.745-72.747C151.615,236.192,185.002,226.068,185.002,226.068z"/>
	<path display="inline" d="M152.694,329.691c0,0-2.643,0.129-2.301,0.623c0.109,0.158,0.237,0.338,0.382,0.539
		c2.513,3.473,10.379,13.047,24.24,18.695c17.164,6.996,22.911-3.674,22.911-3.674s-1.266-20.932,6.499-24.439
		c7.766-3.506-0.706-3.619-2.049-4.279c-0.997-0.49-3.03-0.959-7.093-1.105C185.741,315.701,152.694,329.691,152.694,329.691z"/>
	<path display="inline" d="M218.578,311.803c0,0-2.938,4.203-5.539,7.154c0,0,11.407-0.826,23.771-6.627
		C249.176,306.529,225.135,311.436,218.578,311.803z"/>
	<path display="inline" d="M211.539,323.012c0,0-0.304,4.277-3.815,6.672C207.724,329.684,248.661,314.688,211.539,323.012z"/>
	<path display="inline" d="M225.788,300.883l-6.111,8.84c0,0,33.736-10.917,20.407-10.07
		C226.753,300.5,225.788,300.883,225.788,300.883z"/>
</g>
<g display="none" opacity="0.1">
	<g display="inline">
		<line stroke="#000000" stroke-miterlimit="10" x1="99.82" y1="248.841" x2="197.391" y2="346.411"/>
		<line stroke="#000000" stroke-miterlimit="10" x1="93.07" y1="260.297" x2="190.641" y2="357.867"/>
		<line stroke="#000000" stroke-miterlimit="10" x1="119.551" y1="229.944" x2="217.121" y2="327.515"/>
		<line stroke="#000000" stroke-miterlimit="10" x1="112.801" y1="241.4" x2="210.371" y2="338.971"/>
		<line stroke="#000000" stroke-miterlimit="10" x1="138.426" y1="210.391" x2="235.997" y2="307.961"/>
		<line stroke="#000000" stroke-miterlimit="10" x1="131.676" y1="221.847" x2="229.247" y2="319.418"/>
		<line stroke="#000000" stroke-miterlimit="10" x1="158.157" y1="191.495" x2="255.727" y2="289.065"/>
		<line stroke="#000000" stroke-miterlimit="10" x1="151.407" y1="202.951" x2="248.977" y2="300.521"/>
	</g>
	<g display="inline">
		<line stroke="#000000" stroke-miterlimit="10" x1="25.242" y1="327.979" x2="122.812" y2="425.549"/>
		<line stroke="#000000" stroke-miterlimit="10" x1="18.492" y1="339.434" x2="116.062" y2="437.004"/>
		<line stroke="#000000" stroke-miterlimit="10" x1="44.972" y1="309.082" x2="142.542" y2="406.652"/>
		<line stroke="#000000" stroke-miterlimit="10" x1="38.222" y1="320.537" x2="135.792" y2="418.107"/>
		<line stroke="#000000" stroke-miterlimit="10" x1="63.848" y1="289.528" x2="161.418" y2="387.098"/>
		<line stroke="#000000" stroke-miterlimit="10" x1="57.098" y1="300.984" x2="154.668" y2="398.555"/>
		<line stroke="#000000" stroke-miterlimit="10" x1="83.578" y1="270.632" x2="181.148" y2="368.202"/>
		<line stroke="#000000" stroke-miterlimit="10" x1="76.828" y1="282.088" x2="174.398" y2="379.658"/>
	</g>
	<g display="inline">
		<line stroke="#000000" stroke-miterlimit="10" x1="226.303" y1="188.601" x2="128.732" y2="286.172"/>
		<line stroke="#000000" stroke-miterlimit="10" x1="233.053" y1="200.057" x2="135.482" y2="297.627"/>
		<line stroke="#000000" stroke-miterlimit="10" x1="206.572" y1="169.705" x2="109.002" y2="267.275"/>
		<line stroke="#000000" stroke-miterlimit="10" x1="213.322" y1="181.161" x2="115.752" y2="278.73"/>
		<line stroke="#000000" stroke-miterlimit="10" x1="187.697" y1="150.151" x2="90.126" y2="247.721"/>
		<line stroke="#000000" stroke-miterlimit="10" x1="194.447" y1="161.607" x2="96.876" y2="259.178"/>
		<line stroke="#000000" stroke-miterlimit="10" x1="167.966" y1="131.255" x2="70.396" y2="228.825"/>
		<line stroke="#000000" stroke-miterlimit="10" x1="174.716" y1="142.711" x2="77.146" y2="240.281"/>
	</g>
	<g display="inline">
		<line stroke="#000000" stroke-miterlimit="10" x1="300.881" y1="267.738" x2="203.311" y2="365.309"/>
		<line stroke="#000000" stroke-miterlimit="10" x1="307.631" y1="279.193" x2="210.061" y2="376.764"/>
		<line stroke="#000000" stroke-miterlimit="10" x1="281.151" y1="248.842" x2="183.581" y2="346.412"/>
		<line stroke="#000000" stroke-miterlimit="10" x1="287.901" y1="260.297" x2="190.331" y2="357.867"/>
		<line stroke="#000000" stroke-miterlimit="10" x1="262.275" y1="229.289" x2="164.705" y2="326.857"/>
		<line stroke="#000000" stroke-miterlimit="10" x1="269.025" y1="240.744" x2="171.455" y2="338.314"/>
		<line stroke="#000000" stroke-miterlimit="10" x1="242.545" y1="210.392" x2="144.975" y2="307.963"/>
		<line stroke="#000000" stroke-miterlimit="10" x1="249.295" y1="221.848" x2="151.725" y2="319.418"/>
	</g>
	<g display="inline">
		<line stroke="#000000" stroke-miterlimit="10" x1="147.291" y1="267.739" x2="49.721" y2="365.31"/>
		<line stroke="#000000" stroke-miterlimit="10" x1="154.041" y1="279.195" x2="56.471" y2="376.765"/>
		<line stroke="#000000" stroke-miterlimit="10" x1="127.561" y1="248.842" x2="29.99" y2="346.413"/>
		<line stroke="#000000" stroke-miterlimit="10" x1="134.311" y1="260.298" x2="36.74" y2="357.868"/>
		<line stroke="#000000" stroke-miterlimit="10" x1="108.685" y1="229.289" x2="11.115" y2="326.858"/>
		<line stroke="#000000" stroke-miterlimit="10" x1="115.435" y1="240.745" x2="17.865" y2="338.315"/>
		<line stroke="#000000" stroke-miterlimit="10" x1="88.955" y1="210.393" x2="-8.616" y2="307.963"/>
		<line stroke="#000000" stroke-miterlimit="10" x1="95.705" y1="221.849" x2="-1.866" y2="319.419"/>
	</g>
	<g display="inline">
		<line stroke="#000000" stroke-miterlimit="10" x1="221.87" y1="346.876" x2="124.299" y2="444.446"/>
		<line stroke="#000000" stroke-miterlimit="10" x1="228.62" y1="358.331" x2="131.049" y2="455.901"/>
		<line stroke="#000000" stroke-miterlimit="10" x1="202.139" y1="327.979" x2="104.569" y2="425.55"/>
		<line stroke="#000000" stroke-miterlimit="10" x1="208.889" y1="339.435" x2="111.319" y2="437.005"/>
		<line stroke="#000000" stroke-miterlimit="10" x1="183.264" y1="308.427" x2="85.693" y2="405.995"/>
		<line stroke="#000000" stroke-miterlimit="10" x1="190.014" y1="319.882" x2="92.443" y2="417.452"/>
		<line stroke="#000000" stroke-miterlimit="10" x1="163.533" y1="289.53" x2="65.963" y2="387.101"/>
		<line stroke="#000000" stroke-miterlimit="10" x1="170.283" y1="300.985" x2="72.713" y2="398.556"/>
	</g>
</g>
<g display="none">
	
		<ellipse display="inline" fill="#FFFFFF" stroke="#000000" stroke-width="4" stroke-miterlimit="10" cx="185.5" cy="300.541" rx="41.911" ry="61.362"/>
	<path display="inline" fill="none" stroke="#000000" stroke-width="4" stroke-miterlimit="10" d="M209.75,250v-17
		c0,0-9.876-24-24.25-24S159,232.5,159,232.5V250v3.002"/>
	
		<line display="inline" fill="#FFFFFF" stroke="#000000" stroke-width="4" stroke-miterlimit="10" x1="185.281" y1="240.338" x2="185.5" y2="363"/>
	<polyline display="inline" fill="none" stroke="#000000" stroke-width="4" stroke-miterlimit="10" points="223.803,273.584 
		243.5,260 243.5,227.5 	"/>
	<polyline display="inline" fill="none" stroke="#000000" stroke-width="4" stroke-miterlimit="10" points="227.25,309.09 
		250,302.5 263.5,322.5 	"/>
	<polyline display="inline" fill="none" stroke="#000000" stroke-width="4" stroke-miterlimit="10" points="214.452,345.341 
		242.564,349.048 248.689,378.466 511.085,378.466 683.576,378.466 756.662,378.466 	"/>
	<polyline display="inline" fill="none" stroke="#000000" stroke-width="4" stroke-miterlimit="10" points="147.251,273.669 
		127.554,260.085 127.554,227.585 	"/>
	<polyline display="inline" fill="none" stroke="#000000" stroke-width="4" stroke-miterlimit="10" points="143.804,310.175 
		121.054,303.585 107.554,323.585 	"/>
	<polyline display="inline" fill="none" stroke="#000000" stroke-width="4" stroke-miterlimit="10" points="158.37,347.19 
		130.257,350.897 124.132,380.315 	"/>
	
		<circle display="inline" fill="none" stroke="#000000" stroke-width="4" stroke-miterlimit="10" cx="762.374" cy="378.466" r="5.712"/>
	
		<circle display="inline" fill="none" stroke="#000000" stroke-width="4" stroke-miterlimit="10" cx="265.5" cy="326.181" r="5.712"/>
	<circle display="inline" fill="none" stroke="#000000" stroke-width="4" stroke-miterlimit="10" cx="243.5" cy="222.5" r="5.712"/>
	
		<line display="inline" fill="none" stroke="#000000" stroke-width="4" stroke-miterlimit="10" x1="219.736" y1="265.147" x2="208.535" y2="265.147"/>
	
		<line display="inline" fill="none" stroke="#000000" stroke-width="4" stroke-miterlimit="10" x1="223.803" y1="327.667" x2="206" y2="327.667"/>
	
		<line display="inline" fill="none" stroke="#000000" stroke-width="4" stroke-miterlimit="10" x1="194.401" y1="343" x2="185.5" y2="343"/>
	
		<line display="inline" fill="none" stroke="#000000" stroke-width="4" stroke-miterlimit="10" x1="213.48" y1="300.361" x2="184.845" y2="300.361"/>
	
		<circle display="inline" fill="none" stroke="#000000" stroke-width="4" stroke-miterlimit="10" cx="204.877" cy="265.393" r="3.658"/>
	
		<line display="inline" fill="none" stroke="#000000" stroke-width="4" stroke-miterlimit="10" x1="224.158" y1="285.5" x2="206" y2="285.5"/>
	
		<circle display="inline" fill="none" stroke="#000000" stroke-width="4" stroke-miterlimit="10" cx="201.299" cy="285.746" r="3.658"/>
	
		<circle display="inline" fill="none" stroke="#000000" stroke-width="4" stroke-miterlimit="10" cx="214.9" cy="300.541" r="3.538"/>
	
		<circle display="inline" fill="none" stroke="#000000" stroke-width="4" stroke-miterlimit="10" cx="204.249" cy="327.722" r="3.413"/>
	
		<circle display="inline" fill="none" stroke="#000000" stroke-width="4" stroke-miterlimit="10" cx="195.88" cy="341.597" r="2.956"/>
	<path display="inline" d="M208.535,315.293c0,0.942-0.765,1.707-1.708,1.707h-12.196c-0.943,0-1.708-0.765-1.708-1.707l0,0
		c0-0.943,0.765-1.708,1.708-1.708h12.196C207.771,313.585,208.535,314.35,208.535,315.293L208.535,315.293z"/>
	<path display="inline" d="M197.642,249.521c0,0.564-0.457,1.021-1.021,1.021h-6.85c-0.564,0-1.021-0.457-1.021-1.021l0,0
		c0-0.564,0.457-1.021,1.021-1.021h6.85C197.185,248.5,197.642,248.957,197.642,249.521L197.642,249.521z"/>
	<path display="inline" d="M207.662,274.709c0,0.575,0.466,1.041,1.041,1.041h5.336c0.575,0,1.041-0.466,1.041-1.041l0,0
		c0-0.575-0.466-1.041-1.041-1.041h-5.336C208.127,273.669,207.662,274.135,207.662,274.709L207.662,274.709z"/>
	<path display="inline" d="M199.163,352.966c0,0.295-0.239,0.534-0.535,0.534h-5.17c-0.295,0-0.534-0.239-0.534-0.534l0,0
		c0-0.296,0.239-0.534,0.534-0.534h5.17C198.923,352.432,199.163,352.67,199.163,352.966L199.163,352.966z"/>
	<path display="inline" d="M206,339.32c0,0.376,0.304,0.68,0.679,0.68h4.012c0.375,0,0.679-0.304,0.679-0.68l0,0
		c0-0.375-0.304-0.679-0.679-0.679h-4.012C206.304,338.642,206,338.945,206,339.32L206,339.32z"/>
	<path display="inline" d="M196.043,266.196c0,0.444-0.359,0.804-0.803,0.804h-4.486c-0.443,0-0.803-0.36-0.803-0.804l0,0
		c0-0.443,0.36-0.803,0.803-0.803h4.486C195.684,265.393,196.043,265.753,196.043,266.196L196.043,266.196z"/>
	<path display="inline" d="M196.043,280.243c0,0.28-0.227,0.507-0.507,0.507h-3.529c-0.28,0-0.507-0.227-0.507-0.507l0,0
		c0-0.28,0.227-0.507,0.507-0.507h3.529C195.816,279.736,196.043,279.963,196.043,280.243L196.043,280.243z"/>
	<path display="inline" d="M219.736,310.625c0,0.345-0.28,0.625-0.625,0.625h-5.006c-0.345,0-0.625-0.28-0.625-0.625l0,0
		c0-0.345,0.28-0.625,0.625-0.625h5.006C219.457,310,219.736,310.28,219.736,310.625L219.736,310.625z"/>
	<path display="inline" d="M199.008,306.5c0,0.345-0.28,0.625-0.625,0.625h-5.006c-0.345,0-0.625-0.28-0.625-0.625l0,0
		c0-0.345,0.28-0.625,0.625-0.625h5.006C198.728,305.875,199.008,306.155,199.008,306.5L199.008,306.5z"/>
	<path display="inline" d="M195.88,327.722c0,0.345-0.28,0.625-0.625,0.625h-5.006c-0.345,0-0.625-0.28-0.625-0.625l0,0
		c0-0.345,0.28-0.625,0.625-0.625h5.006C195.6,327.097,195.88,327.377,195.88,327.722L195.88,327.722z"/>
	<path display="inline" d="M219.736,320.5c0,0.553-0.448,1-1,1h-6.366c-0.552,0-1-0.447-1-1l0,0c0-0.553,0.448-1,1-1h6.366
		C219.289,319.5,219.736,319.947,219.736,320.5L219.736,320.5z"/>
</g>
<rect x="166.519" y="461.431" fill="none" width="515.501" height="92"/>
<text transform="matrix(1 0 0 1 199.417 521.1895)" display="none" fill="#445A84" font-family="'KeepCalm-Medium'" font-size="72">PestPlanner</text>
<g id="v4">
	<g>
		<g>
			<g>
				<g>
					<path fill="#2C276C" d="M161.417,352.957c-12.462,0-22.599-9.822-22.599-21.895c0-12.073,10.137-21.895,22.599-21.895
						c12.462,0,22.601,9.821,22.601,21.895C184.018,343.135,173.879,352.957,161.417,352.957z M161.417,315.536
						c-8.836,0-16.025,6.966-16.025,15.526s7.189,15.525,16.025,15.525s16.027-6.965,16.027-15.525S170.253,315.536,161.417,315.536
						z"/>
				</g>
			</g>
			<g display="none">
				<g display="inline">
					<path fill="#2D368F" d="M443.638,263.941c-5.688,0-10.314-4.483-10.314-9.994c0-5.51,4.627-9.993,10.314-9.993
						s10.316,4.483,10.316,9.993C453.954,259.458,449.325,263.941,443.638,263.941z M443.638,252.137
						c-1.029,0-1.869,0.812-1.869,1.81c0,1,0.84,1.811,1.869,1.811c1.031,0,1.869-0.812,1.869-1.811
						C445.507,252.949,444.669,252.137,443.638,252.137z"/>
				</g>
			</g>
			<g>
				<g>
					<path fill="#2C276C" d="M141.882,376.986L141.882,376.986c-1.65,0-2.988-1.297-2.988-2.896v-44.582h5.976v44.582
						C144.87,375.689,143.533,376.986,141.882,376.986z"/>
				</g>
			</g>
		</g>
		<g>
			<g>
				<g>
					<path fill="#2C276C" d="M158.329,300.613c-21.335,0-38.693-17.357-38.693-38.691c0-21.335,17.358-38.691,38.693-38.691
						c21.333,0,38.691,17.356,38.691,38.691C197.02,283.256,179.662,300.613,158.329,300.613z M158.329,234.485
						c-15.13,0-27.438,12.308-27.438,27.437c0,15.128,12.308,27.437,27.438,27.437c15.128,0,27.436-12.309,27.436-27.437
						C185.765,246.793,173.457,234.485,158.329,234.485z"/>
				</g>
			</g>
			<g display="none">
				<g display="inline">
					<path fill="#2C276C" d="M439.67,182.773c-9.738,0-17.661-7.922-17.661-17.661c0-9.738,7.923-17.66,17.661-17.66
						c9.737,0,17.66,7.922,17.66,17.66C457.33,174.851,449.407,182.773,439.67,182.773z M439.67,161.913
						c-1.766,0-3.2,1.435-3.2,3.199c0,1.766,1.435,3.2,3.2,3.2c1.764,0,3.199-1.435,3.199-3.2
						C442.869,163.347,441.434,161.913,439.67,161.913z"/>
				</g>
			</g>
			<g>
				<g>
					<path fill="#2C276C" d="M124.884,376.986L124.884,376.986c-2.825,0-5.116-3.217-5.116-7.184V259.175H130v110.628
						C130,373.77,127.71,376.986,124.884,376.986z"/>
				</g>
			</g>
		</g>
	</g>
	<rect x="163.194" y="316.592" fill="none" width="515.501" height="92"/>
	<text transform="matrix(1 0 0 1 196.0928 376.3496)" fill="#414042" font-family="'KeepCalm-Medium'" font-size="72">PestPlanner</text>
</g>
<g id="v3" display="none">
	<rect x="-51.854" y="487.614" display="inline" fill="none" width="515.501" height="92"/>
	
		<text transform="matrix(1 0 0 1 -18.9551 547.373)" display="inline" fill="#445A84" font-family="'KeepCalm-Medium'" font-size="72">PestPlanner</text>
	<g display="inline">
		<g>
			<polygon fill-rule="evenodd" clip-rule="evenodd" fill="#E62683" points="302.277,393.456 302.277,398.398 302.277,426.222 
				278.182,440.133 254.087,454.044 229.991,440.133 225.71,437.661 			"/>
			<polygon fill-rule="evenodd" clip-rule="evenodd" fill="#C72480" points="282.327,437.739 278.182,440.133 254.087,454.044 
				229.991,440.133 205.896,426.222 205.896,398.398 205.896,393.612 			"/>
			<polygon fill-rule="evenodd" clip-rule="evenodd" fill="#F4D553" points="205.896,481.959 205.896,398.398 205.896,370.575 
				229.991,356.664 234.312,354.17 234.311,465.555 			"/>
			<polygon fill-rule="evenodd" clip-rule="evenodd" fill="#FAA549" points="254.087,342.753 278.182,356.664 282.433,359.118 
				205.896,403.306 205.896,398.398 205.896,370.575 229.991,356.664 			"/>
			<polygon fill-rule="evenodd" clip-rule="evenodd" fill="#09A9E2" points="254.087,342.753 278.182,356.664 302.277,370.575 
				302.277,393.456 293.77,398.368 225.766,359.104 229.991,356.664 			"/>
			<polygon fill-rule="evenodd" clip-rule="evenodd" fill="#0679BC" points="273.934,354.211 278.182,356.664 302.277,370.575 
				302.277,393.456 273.934,409.819 			"/>
		</g>
		<g>
			<polygon fill-rule="evenodd" clip-rule="evenodd" fill="#E62683" points="109.516,393.456 109.516,398.398 109.516,426.222 
				133.611,440.133 157.707,454.044 181.802,440.133 186.084,437.661 			"/>
			<polygon fill-rule="evenodd" clip-rule="evenodd" fill="#C72480" points="129.466,437.739 133.611,440.133 157.707,454.044 
				181.802,440.133 205.896,426.222 205.896,398.398 205.896,393.612 			"/>
			<polygon fill-rule="evenodd" clip-rule="evenodd" fill="#F4D553" points="205.896,481.959 205.896,398.398 205.896,370.575 
				181.802,356.664 177.482,354.17 177.483,465.555 			"/>
			<polygon fill-rule="evenodd" clip-rule="evenodd" fill="#FAA549" points="157.707,342.753 133.611,356.664 129.361,359.118 
				205.896,403.306 205.896,398.398 205.896,370.575 181.802,356.664 			"/>
			<polygon fill-rule="evenodd" clip-rule="evenodd" fill="#09A9E2" points="157.707,342.753 133.611,356.664 109.516,370.575 
				109.516,393.456 118.023,398.368 186.027,359.104 181.802,356.664 			"/>
			<polygon fill-rule="evenodd" clip-rule="evenodd" fill="#0679BC" points="137.86,354.211 133.611,356.664 109.516,370.575 
				109.516,393.456 137.86,409.819 			"/>
		</g>
	</g>
</g>
<g id="v2" display="none">
	<g display="inline">
		<g>
			<path fill-rule="evenodd" clip-rule="evenodd" fill="#445A84" d="M93.297,93.918l-5.302,21.503c0,0,8.3,12.542-5.249,31.939
				c-13.55,19.394-41.753,23.729-41.753,23.729s36.542,7.019,62.385-13.616c25.843-20.636,2.995-55.506,2.995-55.506L93.297,93.918z
				"/>
			<path fill-rule="evenodd" clip-rule="evenodd" fill="#22B6C6" d="M37.046,243.309c0,0-64.678-34.665-50.252-102.757
				C6.612,47.007,137.282,59.144,118.5,137.25c-3.154,13.128-15.122,20.223-15.122,20.223
				C122.441,67.384-59.988,119.348,37.046,243.309z"/>
		</g>
		<g>
			<path fill-rule="evenodd" clip-rule="evenodd" fill="#445A84" d="M-123.907,92.218l5.301,21.503c0,0-8.3,12.542,5.251,31.939
				c13.549,19.394,41.752,23.729,41.752,23.729s-36.541,7.019-62.385-13.616c-25.841-20.636-2.996-55.506-2.996-55.506
				L-123.907,92.218z"/>
			<path fill-rule="evenodd" clip-rule="evenodd" fill="#22B6C6" d="M-67.655,241.61c0,0,64.677-34.665,50.253-102.759
				c-19.819-93.545-150.49-81.408-131.708-3.302c3.155,13.128,15.122,20.223,15.122,20.223
				C-153.051,65.684,29.378,117.648-67.655,241.61z"/>
		</g>
	</g>
	<rect x="-376.312" y="243.312" display="inline" fill="none" width="722.013" height="128.855"/>
	
		<text transform="matrix(1 0 0 1 -330.2349 327.0107)" display="inline" fill="#445A84" font-family="'KeepCalm-Medium'" font-size="100.8435">PestPlanner</text>
</g>
<g id="v1" display="none">
	<rect x="632.72" y="479.079" display="inline" fill="none" width="515.501" height="92"/>
	
		<text transform="matrix(1 0 0 1 665.6182 538.8379)" display="inline" fill="#445A84" font-family="'KeepCalm-Medium'" font-size="72">PestPlanner</text>
	<g display="inline">
		<g>
			<polygon fill-rule="evenodd" clip-rule="evenodd" fill="#FCBE42" points="852.635,352.691 889.866,328.84 889.866,461.184 
				852.635,437.914 			"/>
			<polygon fill-rule="evenodd" clip-rule="evenodd" fill="#44C5EE" points="962.356,363.818 852.635,437.737 852.635,392.845 
				962.356,318.926 			"/>
			<polygon fill-rule="evenodd" clip-rule="evenodd" fill="#67B74D" points="889.866,412.654 852.635,437.737 852.635,392.845 
				889.866,367.764 			"/>
			<polygon fill-rule="evenodd" clip-rule="evenodd" fill="#E84282" points="962.356,318.787 910.198,283.649 843.564,283.649 
				962.356,363.68 			"/>
			<polygon fill-rule="evenodd" clip-rule="evenodd" fill="#5C499D" points="929.14,341.303 962.356,318.926 962.356,363.68 			"/>
		</g>
		<g>
			<polygon fill-rule="evenodd" clip-rule="evenodd" fill="#FCBE42" points="805.798,321.181 843.029,297.33 843.029,429.673 
				805.798,406.403 			"/>
			<g>
				<polygon fill-rule="evenodd" clip-rule="evenodd" fill="#44C5EE" points="915.521,332.307 805.798,406.227 805.798,361.334 
					915.521,287.415 				"/>
			</g>
			<polygon fill-rule="evenodd" clip-rule="evenodd" fill="#67B74D" points="843.029,381.144 805.798,406.227 805.798,361.334 
				843.029,336.254 			"/>
			<polygon fill-rule="evenodd" clip-rule="evenodd" fill="#E84282" points="915.521,287.277 863.361,252.139 796.729,252.139 
				915.521,332.169 			"/>
			<polygon fill-rule="evenodd" clip-rule="evenodd" fill="#5C499D" points="882.303,309.791 915.521,287.415 915.521,332.169 			
				"/>
		</g>
	</g>
</g>
</svg>
